<svg width="512" height="512" viewBox="0 0 512 512" fill="none" xmlns="http://www.w3.org/2000/svg">
  <rect width="512" height="512" rx="110" fill="#10B981"/>
  <path d="M128 260C128 186.993 187.993 127 261 127H306C313.732 127 320 133.268 320 141V187C320 194.732 313.732 201 306 201H261C228.415 201 202 227.415 202 260V286C202 318.585 228.415 345 261 345H306C313.732 345 320 351.268 320 359V404C320 411.732 313.732 418 306 418H261C187.993 418 128 358.007 128 285V260Z" fill="white"/>
  <circle cx="356" cy="256" r="28" fill="white"/>
</svg>
